# Blender v2.83.0 OBJ File: ''
# www.blender.org
mtllib lock 1.mtl
o Cube
v -0.204522 1.852019 -0.000388
v -0.137682 1.422027 0.241053
v -0.137682 2.015062 0.241053
v -0.302993 2.015062 0.241053
v -0.302993 1.422027 0.241053
v -0.124891 1.422027 -0.203500
v -0.124891 2.015062 -0.203500
v -0.124891 2.015062 0.209128
v -0.124891 1.422027 0.209128
v -0.137682 2.060947 -0.203500
v -0.302993 2.060947 -0.203500
v -0.302993 2.060947 0.209128
v -0.137682 2.060947 0.209128
v -0.302470 1.828803 -0.117901
v -0.302470 1.852177 -0.120203
v -0.302993 1.422027 -0.235426
v -0.302993 2.015062 -0.235426
v -0.137682 2.015062 -0.235426
v -0.137682 1.422027 -0.235426
v -0.302993 1.376142 0.209128
v -0.315784 1.422027 0.209128
v -0.315784 2.015062 0.209128
v -0.302993 1.376142 -0.203500
v -0.315784 1.422027 -0.203500
v -0.315784 2.015062 -0.203500
v -0.137682 1.376142 0.209128
v -0.137682 1.376142 -0.203500
v -0.302470 1.752554 0.066178
v -0.302470 1.741482 0.045464
v -0.302470 1.969691 -0.023763
v -0.302470 1.971993 -0.000388
v -0.217639 1.738006 0.034462
v -0.217639 1.463373 0.054744
v -0.302470 1.463373 0.054744
v -0.302470 1.738142 0.034452
v -0.302470 1.752554 -0.066954
v -0.302470 1.767455 -0.085110
v -0.302470 1.875552 -0.117901
v -0.302470 1.898029 -0.111083
v -0.302470 1.852177 0.119428
v -0.302470 1.828802 0.117125
v -0.302470 1.962873 -0.046239
v -0.302470 1.806326 0.110307
v -0.302470 1.875552 0.117125
v -0.302470 1.785611 -0.100011
v -0.302470 1.806326 -0.111083
v -0.302470 1.898029 0.110307
v -0.302470 1.785611 0.099235
v -0.302470 1.767455 0.084334
v -0.302470 1.918743 0.099235
v -0.302470 1.962873 0.045464
v -0.302470 1.951800 0.066178
v -0.302470 1.918743 -0.100011
v -0.302470 1.936900 0.084335
v -0.302470 1.748958 -0.060226
v -0.217639 1.748825 -0.060236
v -0.217639 1.741344 -0.046239
v -0.315784 1.861837 0.130786
v -0.315784 1.822999 0.126997
v -0.315784 1.802152 0.120673
v -0.315784 1.779098 0.108351
v -0.315784 1.759076 0.091919
v -0.315784 1.742761 0.072039
v -0.315784 1.730698 0.049470
v -0.315784 1.728189 0.041200
v -0.315784 1.435683 0.062802
v -0.315784 1.435683 -0.090752
v -0.315784 1.740411 -0.068248
v -0.315784 1.742761 -0.072646
v -0.315784 1.759076 -0.092525
v -0.315784 1.779098 -0.108957
v -0.315784 1.802152 -0.121280
v -0.315784 1.822605 -0.127484
v -0.315784 1.862439 -0.131368
v -0.302470 1.969691 0.022987
v -0.302470 1.936900 -0.085110
v -0.302470 1.951800 -0.066954
v -0.217639 1.732223 -0.000388
v -0.217639 1.734525 0.022987
v -0.217639 1.463373 -0.081316
v -0.302470 1.463373 -0.081316
v -0.217639 1.734525 -0.023763
v -0.315784 1.986891 -0.000303
v -0.315784 1.984394 -0.025660
v -0.315784 1.984394 0.025053
v -0.315784 1.976987 0.049470
v -0.315784 1.976987 -0.050076
v -0.315784 1.964923 0.072039
v -0.315784 1.964923 -0.072646
v -0.315784 1.948608 0.091919
v -0.315784 1.928586 0.108351
v -0.315784 1.948609 -0.092525
v -0.315784 1.928586 -0.108957
v -0.315784 1.905533 -0.121280
v -0.315784 1.905532 0.120673
v -0.315784 1.877293 0.129239
v -0.315784 1.877131 -0.129895
v -0.204557 1.828644 0.117125
v -0.204591 1.806168 0.110307
v -0.204522 1.852019 0.119428
v -0.204487 1.875394 0.117125
v -0.204454 1.897870 0.110307
v -0.204423 1.918585 0.099235
v -0.204396 1.936741 0.084335
v -0.204373 1.951642 0.066178
v -0.204357 1.962714 0.045464
v -0.204347 1.969532 0.022987
v -0.204343 1.971835 -0.000388
v -0.204347 1.969532 -0.023763
v -0.204357 1.962714 -0.046239
v -0.204373 1.951642 -0.066954
v -0.204396 1.936741 -0.085110
v -0.204423 1.918585 -0.100011
v -0.204454 1.897871 -0.111083
v -0.204487 1.875394 -0.117901
v -0.204522 1.852019 -0.120203
v -0.204557 1.828645 -0.117901
v -0.204591 1.806168 -0.111083
v -0.204621 1.785453 -0.100011
v -0.204649 1.767297 -0.085110
v -0.204671 1.752396 -0.066954
v -0.204687 1.741324 -0.046239
v -0.204697 1.734506 -0.023763
v -0.204701 1.732204 -0.000388
v -0.204697 1.734506 0.022987
v -0.204687 1.741324 0.045464
v -0.204671 1.752396 0.066178
v -0.204649 1.767297 0.084334
v -0.204621 1.785453 0.099235
vt 0.126491 0.004767
vt 0.479919 0.000100
vt 0.481220 0.098620
vt 0.127792 0.103287
vt 0.129270 0.509939
vt 0.479184 0.513764
vt 0.477721 0.757595
vt 0.127806 0.753771
vt 0.612862 0.375544
vt 0.509850 0.375544
vt 0.509851 0.118418
vt 0.612862 0.118418
vt 0.700529 0.010843
vt 0.721299 0.071147
vt 0.710380 0.073904
vt 0.682951 0.018172
vt 0.129706 0.391507
vt 0.481143 0.395216
vt 0.480110 0.493181
vt 0.128672 0.489471
vt 0.099983 0.123174
vt 0.128804 0.123895
vt 0.480592 0.119584
vt 0.101789 0.371877
vt 0.130532 0.370799
vt 0.480455 0.374479
vt 0.099462 0.754593
vt 0.126880 0.774354
vt 0.506246 0.758794
vt 0.478320 0.778062
vt 0.100745 0.508739
vt 0.507529 0.512941
vt 0.002151 0.372601
vt 0.102034 0.405569
vt 0.002396 0.406293
vt 0.612862 0.410377
vt 0.509851 0.410377
vt 0.000345 0.123897
vt 0.000100 0.090205
vt 0.099738 0.089482
vt 0.509851 0.083586
vt 0.612862 0.083586
vt 0.797534 0.239556
vt 0.777129 0.169178
vt 0.790824 0.158080
vt 0.816106 0.233705
vt 0.613063 0.120759
vt 0.668990 0.124478
vt 0.668845 0.133804
vt 0.613725 0.138694
vt 0.801751 0.150905
vt 0.946126 0.122024
vt 0.999900 0.159002
vt 0.816556 0.207380
vt 0.776699 0.000100
vt 0.777749 0.080014
vt 0.761125 0.074014
vt 0.757195 0.000694
vt 0.666570 0.027708
vt 0.700569 0.078143
vt 0.691924 0.083689
vt 0.651771 0.039396
vt 0.703200 0.243975
vt 0.718673 0.185147
vt 0.729321 0.185923
vt 0.721802 0.247549
vt 0.615308 0.102741
vt 0.670653 0.115255
vt 0.740524 0.184940
vt 0.740793 0.248653
vt 0.685365 0.237852
vt 0.708695 0.182752
vt 0.737909 0.002378
vt 0.746508 0.070896
vt 0.733315 0.070062
vt 0.718949 0.005647
vt 0.668706 0.229209
vt 0.699524 0.178879
vt 0.759866 0.247477
vt 0.752210 0.182019
vt 0.764374 0.176907
vt 0.778808 0.244313
vt 0.653639 0.218189
vt 0.691304 0.173671
vt 0.621632 0.173718
vt 0.673698 0.151737
vt 0.678272 0.159914
vt 0.629795 0.190073
vt 0.684529 0.090365
vt 0.638934 0.053064
vt 0.684177 0.167290
vt 0.640555 0.205032
vt 0.789203 0.080849
vt 0.794174 0.091396
vt 0.785849 0.094789
vt 0.385423 0.167189
vt 0.361358 0.169303
vt 0.348495 0.173123
vt 0.334361 0.180446
vt 0.322147 0.190113
vt 0.312229 0.201654
vt 0.304915 0.214124
vt 0.303238 0.218451
vt 0.137760 0.211674
vt 0.138208 0.304312
vt 0.310362 0.294117
vt 0.311938 0.296742
vt 0.322296 0.307885
vt 0.334703 0.317445
vt 0.348943 0.324716
vt 0.361566 0.328440
vt 0.386170 0.330725
vt 0.616247 0.156428
vt 0.670538 0.142963
vt 0.678469 0.097986
vt 0.628400 0.068434
vt 0.620457 0.085138
vt 0.673824 0.106353
vt 0.802627 0.124350
vt 0.802825 0.141927
vt 0.793643 0.141446
vt 0.793305 0.125407
vt 0.935773 0.078266
vt 0.999900 0.023729
vt 0.799709 0.107613
vt 0.790908 0.109833
vt 0.790557 0.018832
vt 0.463070 0.249281
vt 0.461522 0.265042
vt 0.449536 0.263295
vt 0.450955 0.249313
vt 0.461542 0.233478
vt 0.449529 0.235330
vt 0.456964 0.218243
vt 0.445427 0.221872
vt 0.456949 0.280207
vt 0.445457 0.276696
vt 0.449501 0.204148
vt 0.438799 0.209484
vt 0.449517 0.294214
vt 0.438869 0.289001
vt 0.439405 0.191717
vt 0.429903 0.198650
vt 0.427005 0.181420
vt 0.419080 0.189784
vt 0.439477 0.306547
vt 0.430030 0.299741
vt 0.427150 0.316750
vt 0.419280 0.308515
vt 0.412934 0.324417
vt 0.407029 0.314997
vt 0.412705 0.173665
vt 0.406746 0.183213
vt 0.395121 0.168249
vt 0.393343 0.179198
vt 0.395347 0.329772
vt 0.393725 0.318942
vt 0.379908 0.320191
vt 0.379429 0.177818
vt 0.365527 0.179175
vt 0.366082 0.318690
vt 0.352280 0.182856
vt 0.340101 0.188992
vt 0.340447 0.308848
vt 0.352738 0.314990
vt 0.329411 0.197267
vt 0.329562 0.300510
vt 0.320564 0.207331
vt 0.320293 0.290038
vt 0.313717 0.218981
vt 0.311483 0.226236
vt 0.156637 0.221178
vt 0.155621 0.294434
vt 0.317879 0.285498
vt 0.722289 0.129488
vt 0.847312 0.052170
vt 0.844736 0.046943
vt 0.863871 0.168761
vt 0.865124 0.160164
vn 0.1685 -0.0469 0.9846
vn 0.1685 0.0469 0.9846
vn -0.1685 0.0469 0.9846
vn -0.1685 -0.0469 0.9846
vn 0.9994 -0.0193 -0.0278
vn 0.9994 0.0193 -0.0278
vn 0.9994 0.0193 0.0277
vn 0.9994 -0.0193 0.0277
vn 0.2360 0.9671 -0.0945
vn -0.2360 0.9671 -0.0945
vn -0.2360 0.9671 0.0946
vn 0.2360 0.9671 0.0945
vn -0.1116 0.1894 0.9755
vn 0.0003 0.1951 0.9808
vn 0.0000 0.0000 1.0000
vn -0.1128 0.0072 0.9936
vn -0.1685 -0.0469 -0.9846
vn -0.1685 0.0469 -0.9846
vn 0.1685 0.0469 -0.9846
vn 0.1685 -0.0469 -0.9846
vn -0.2360 -0.9671 0.0945
vn -0.9987 -0.0287 0.0412
vn -0.9987 0.0287 0.0412
vn -0.2360 -0.9671 -0.0946
vn -0.9987 -0.0287 -0.0412
vn -0.9987 0.0287 -0.0413
vn 0.2360 -0.9671 0.0946
vn 0.2360 -0.9671 -0.0945
vn -0.1087 0.8259 -0.5533
vn 0.0013 0.8315 -0.5556
vn 0.0014 0.9128 -0.4084
vn -0.1006 0.9075 -0.4079
vn -0.1431 -0.9704 0.1943
vn -0.0016 -0.9808 0.1951
vn -0.0016 -1.0000 -0.0000
vn -0.1442 -0.9896 0.0000
vn 0.0025 0.2620 -0.9651
vn -0.0000 -0.0737 -0.9973
vn -0.2306 0.3537 -0.9065
vn -0.0435 -0.0212 -0.9988
vn -0.0980 0.8029 0.5881
vn 0.0013 0.8080 0.5891
vn 0.0011 0.7071 0.7071
vn -0.1069 0.7028 0.7034
vn -0.1097 -0.1958 0.9745
vn -0.0003 -0.1951 0.9808
vn -0.0006 -0.3827 0.9239
vn -0.1234 -0.3782 0.9175
vn -0.1143 0.0067 -0.9934
vn -0.0000 0.0000 -1.0000
vn 0.0003 0.1951 -0.9808
vn -0.1131 0.1898 -0.9753
vn -0.1405 -0.9138 0.3811
vn -0.0015 -0.9239 0.3827
vn 0.0006 0.3827 -0.9239
vn -0.1039 0.3811 -0.9187
vn -0.1117 -0.1955 -0.9743
vn -0.0003 -0.1951 -0.9808
vn -0.1064 0.5515 0.8274
vn 0.0009 0.5556 0.8315
vn 0.0006 0.3827 0.9239
vn -0.1020 0.3812 0.9189
vn -0.1247 -0.3759 -0.9182
vn -0.0006 -0.3827 -0.9239
vn -0.1078 0.5515 -0.8272
vn 0.0009 0.5556 -0.8315
vn 0.0011 0.7071 -0.7071
vn -0.1080 0.7027 -0.7032
vn -0.1268 -0.5475 -0.8271
vn -0.0009 -0.5556 -0.8315
vn -0.1411 -0.9138 -0.3808
vn -0.0015 -0.9239 -0.3827
vn -0.0013 -0.8315 -0.5556
vn -0.1373 -0.8231 -0.5510
vn -0.0009 -0.5556 0.8315
vn -0.1254 -0.5501 0.8256
vn -0.0011 -0.7071 -0.7071
vn -0.1323 -0.7001 -0.7017
vn 0.0008 0.2088 0.9780
vn 0.0014 0.9033 0.4291
vn 0.0014 0.9033 0.4290
vn -1.0000 -0.0000 -0.0019
vn -1.0000 0.0004 -0.0023
vn -1.0000 0.0008 -0.0020
vn -1.0000 0.0012 -0.0018
vn -1.0000 0.0016 -0.0015
vn -1.0000 0.0018 -0.0012
vn -1.0000 0.0014 -0.0006
vn -0.9995 -0.0014 -0.0302
vn -0.9999 0.0103 -0.0077
vn -0.9999 0.0099 0.0083
vn -0.9996 -0.0016 0.0273
vn -1.0000 0.0011 0.0008
vn -1.0000 0.0016 0.0016
vn -1.0000 0.0012 0.0019
vn -1.0000 0.0009 0.0019
vn -1.0000 0.0005 0.0023
vn -1.0000 -0.0000 0.0018
vn -0.1435 -0.9704 -0.1941
vn -0.0016 -0.9808 -0.1951
vn -0.0011 -0.7071 0.7071
vn -0.1312 -0.7002 0.7018
vn -0.1363 -0.8218 0.5532
vn -0.0013 -0.8315 0.5556
vn 0.0015 1.0000 0.0000
vn 0.0015 0.9672 -0.2542
vn 0.0014 0.9672 -0.2542
vn 0.0000 1.0000 0.0000
vn -0.2484 0.3399 0.9071
vn 0.0015 0.9808 0.1951
vn 0.0000 -0.0736 0.9973
vn -0.7923 0.2181 0.5698
vn -1.0000 -0.0000 0.0000
vn -1.0000 -0.0022 0.0000
vn -1.0000 -0.0021 0.0004
vn -1.0000 -0.0021 -0.0004
vn -1.0000 -0.0020 -0.0009
vn -1.0000 -0.0020 0.0008
vn -1.0000 -0.0018 -0.0012
vn -1.0000 -0.0018 0.0012
vn -1.0000 -0.0016 -0.0015
vn -1.0000 -0.0013 -0.0018
vn -1.0000 -0.0016 0.0015
vn -1.0000 -0.0013 0.0018
vn -1.0000 -0.0009 0.0021
vn -1.0000 -0.0009 -0.0021
vn -1.0000 -0.0004 -0.0020
vn -1.0000 -0.0004 0.0020
vn -1.0000 0.0015 0.0000
usemtl Lock
s 1
f 2/1/1 3/2/2 4/3/3 5/4/4
f 6/5/5 7/6/6 8/7/7 9/8/8
f 10/9/9 11/10/10 12/11/11 13/12/12
f 14/13/13 117/14/14 116/15/15 15/16/16
f 16/17/17 17/18/18 18/19/19 19/20/20
f 20/21/21 5/4/4 21/22/22
f 4/3/3 12/11/11 22/23/23
f 23/24/24 24/25/25 16/17/17
f 11/10/10 17/18/18 25/26/26
f 26/27/27 9/8/8 2/28/1
f 13/29/12 3/30/2 8/7/7
f 27/31/28 19/20/20 6/5/5
f 10/32/9 7/6/6 18/19/19
f 23/24/24 20/21/21 21/22/22 24/25/25
f 5/4/4 4/3/3 22/23/23 21/22/22
f 12/11/11 11/10/10 25/26/26 22/23/23
f 17/18/18 16/17/17 24/25/25 25/26/26
f 27/33/28 23/24/24 16/34/17 19/35/20
f 11/10/10 10/9/9 18/36/19 17/37/18
f 7/6/6 6/5/5 19/20/20 18/19/19
f 26/27/27 27/31/28 6/5/5 9/8/8
f 10/32/9 13/29/12 8/7/7 7/6/6
f 3/30/2 2/28/1 9/8/8 8/7/7
f 20/21/21 26/38/27 2/39/1 5/40/4
f 13/12/12 12/11/11 4/41/3 3/42/2
f 23/24/24 27/33/28 26/38/27 20/21/21
f 28/43/29 127/44/30 126/45/31 29/46/32
f 30/47/33 109/48/34 108/49/35 31/50/36
f 32/51/37 33/52/38 34/53/39 35/54/40
f 36/55/41 121/56/42 120/57/43 37/58/44
f 38/59/45 115/60/46 114/61/47 39/62/48
f 40/63/49 100/64/50 98/65/51 41/66/52
f 42/67/53 110/68/54 109/48/34 30/47/33
f 41/66/52 98/65/51 99/69/55 43/70/56
f 44/71/57 101/72/58 100/64/50 40/63/49
f 45/73/59 119/74/60 118/75/61 46/76/62
f 47/77/63 102/78/64 101/72/58 44/71/57
f 48/79/65 129/80/66 128/81/67 49/82/68
f 49/82/68 128/81/67 127/44/30 28/43/29
f 50/83/69 103/84/70 102/78/64 47/77/63
f 51/85/71 106/86/72 105/87/73 52/88/74
f 37/58/44 120/57/43 119/74/60 45/73/59
f 39/62/48 114/61/47 113/89/75 53/90/76
f 52/88/74 105/87/73 104/91/77 54/92/78
f 56/93/79 57/94/80 122/95/81 121/56/42
f 21/22/22 22/23/23 58/96/82 59/97/83 60/98/84 61/99/85 62/100/86 63/101/87 64/102/88 65/103/89 66/104/90 67/105/91 68/106/92 69/107/93 70/108/94 71/109/95 72/110/96 73/111/97 74/112/98 25/26/26 24/25/25
f 75/113/99 107/114/100 106/86/72 51/85/71
f 15/16/16 116/15/15 115/60/46 38/59/45
f 31/50/36 108/49/35 107/114/100 75/113/99
f 53/90/76 113/89/75 112/115/101 76/116/102
f 46/76/62 118/75/61 117/14/14 14/13/13
f 77/117/103 111/118/104 110/68/54 42/67/53
f 43/70/56 99/69/55 129/80/66 48/79/65
f 76/116/102 112/115/101 111/118/104 77/117/103
f 54/92/78 104/91/77 103/84/70 50/83/69
f 78/119/105 79/120/106 125/121/107 124/122/105
f 34/53/39 33/52/108 80/123/108 81/124/109
f 126/45/31 125/121/107 79/120/106 32/51/37
f 57/94/80 82/125/110 123/126/110 122/95/81
f 81/124/109 80/123/111 56/93/79 55/127/112
f 82/125/110 78/119/105 124/122/105 123/126/110
f 33/52/113 32/51/113 79/120/113
f 83/128/114 84/129/115 30/130/33 31/131/36
f 85/132/116 83/128/114 31/131/36 75/133/99
f 86/134/117 85/132/116 75/133/99 51/135/71
f 84/129/115 87/136/118 42/137/53 30/130/33
f 88/138/119 86/134/117 51/135/71 52/139/74
f 87/136/118 89/140/120 77/141/103 42/137/53
f 90/142/121 88/138/119 52/139/74 54/143/78
f 91/144/122 90/142/121 54/143/78 50/145/69
f 89/140/120 92/146/123 76/147/102 77/141/103
f 92/146/123 93/148/124 53/149/76 76/147/102
f 93/148/124 94/150/125 39/151/48 53/149/76
f 95/152/126 91/144/122 50/145/69 47/153/63
f 96/154/127 95/152/126 47/153/63 44/155/57
f 94/150/125 97/156/128 38/157/45 39/151/48
f 97/156/128 74/112/98 15/158/16 38/157/45
f 58/96/82 96/154/127 44/155/57 40/159/49
f 59/97/83 58/96/82 40/159/49 41/160/52
f 74/112/98 73/111/97 14/161/13 15/158/16
f 60/98/84 59/97/83 41/160/52 43/162/56
f 61/99/85 60/98/84 43/162/56 48/163/65
f 72/110/96 71/109/95 45/164/59 46/165/62
f 73/111/97 72/110/96 46/165/62 14/161/13
f 62/100/86 61/99/85 48/163/65 49/166/68
f 71/109/95 70/108/94 37/167/44 45/164/59
f 63/101/87 62/100/86 49/166/68 28/168/29
f 70/108/94 69/107/93 36/169/41 37/167/44
f 64/102/88 63/101/87 28/168/29 29/170/32
f 65/103/89 64/102/88 29/170/32 35/171/40
f 66/104/90 65/103/89 35/171/40 34/172/39
f 67/105/91 66/104/90 34/172/39 81/173/109
f 68/106/92 67/105/91 81/173/109 55/174/112
f 69/107/93 68/106/92 55/174/112 36/169/41
f 25/26/26 74/112/98 97/156/128 94/150/125 93/148/124 92/146/123 89/140/120 87/136/118 84/129/115 83/128/114 85/132/116 86/134/117 88/138/119 90/142/121 91/144/122 95/152/126 96/154/127 58/96/82 22/23/23
f 56/93/113 80/123/113 57/94/113
f 33/52/113 79/120/113 78/119/113
f 57/94/113 80/123/113 82/125/113
f 80/123/113 33/52/113 78/119/113 82/125/113
f 1/175/129 99/69/129 98/65/129
f 1/175/129 98/65/129 100/64/129
f 1/175/129 100/64/129 101/72/129
f 1/175/129 101/72/129 102/78/129
f 1/175/129 102/78/129 103/84/129
f 1/175/129 103/84/129 104/91/129
f 1/175/129 104/91/129 105/87/129
f 1/175/129 105/87/129 106/86/129
f 1/175/129 106/86/129 107/114/129
f 1/175/129 107/114/129 108/49/129
f 1/175/129 108/49/129 109/48/129
f 1/175/129 109/48/129 110/68/129
f 1/175/129 110/68/129 111/118/129
f 1/175/129 111/118/129 112/115/129
f 1/175/129 112/115/129 113/89/129
f 1/175/129 113/89/129 114/61/129
f 1/175/129 114/61/129 115/60/129
f 1/175/129 115/60/129 116/15/129
f 1/175/129 116/15/129 117/14/129
f 1/175/129 117/14/129 118/75/129
f 1/175/129 118/75/129 119/74/129
f 1/175/129 119/74/129 120/57/129
f 1/175/129 120/57/129 121/56/129
f 1/175/129 121/56/129 122/95/129
f 1/175/129 122/95/129 123/126/129
f 1/175/129 123/126/129 124/122/129
f 1/175/129 124/122/129 125/121/129
f 1/175/129 125/121/129 126/45/129
f 1/175/129 126/45/129 127/44/129
f 1/175/129 127/44/129 128/81/129
f 1/175/129 128/81/129 129/80/129
f 1/175/129 129/80/129 99/69/129
f 55/176/112 56/93/79 121/56/42 36/177/41
f 29/178/32 126/45/31 32/51/37 35/179/40
