# Blender v2.90.1 OBJ File: 'waterfall.blend'
# www.blender.org
mtllib lagoon pond 3.mtl
o Cylinder.028_Cylinder.021
v 3.008305 -0.030465 9.124994
v 3.008305 0.609461 9.265248
v 3.651093 -0.030465 9.358950
v 3.546486 0.421865 9.466391
v 3.993113 -0.030465 9.951346
v 3.832846 0.421865 9.975700
v 3.874331 -0.030465 10.624994
v 3.733394 0.609461 10.554867
v 3.350325 -0.030465 11.064687
v 3.294665 0.609461 10.932891
v 2.666285 -0.030465 11.064687
v 2.721945 0.609461 10.932890
v 2.142280 -0.030465 10.624994
v 2.283216 0.609461 10.554867
v 2.023498 -0.030465 9.951346
v 2.347209 0.609461 9.975700
v 2.365518 -0.030465 9.358950
v 2.870140 0.609461 9.466391
v 3.463119 0.421865 9.568412
v 3.008305 0.609461 9.398427
v 3.705120 0.421865 9.998827
v 3.621074 0.609461 10.488277
v 3.250307 0.609461 10.807743
v 2.766304 0.609461 10.807743
v 2.395536 0.609461 10.488277
v 2.474935 0.609461 9.998827
v 2.953507 0.609461 9.568412
v 3.345095 0.275448 9.712845
v 3.008305 0.275448 9.586972
v 3.524297 0.275448 10.031568
v 3.462061 0.275448 10.394006
v 3.187507 0.275448 10.630570
v 2.829103 0.275448 10.630570
v 2.554550 0.275448 10.394006
v 2.492314 0.275448 10.031568
v 2.671516 0.275448 9.712845
vt 1.000000 0.500000
vt 1.000000 1.000000
vt 0.888889 1.000000
vt 0.888889 0.500000
vt 0.777778 1.000000
vt 0.777778 0.500000
vt 0.666667 1.000000
vt 0.666667 0.500000
vt 0.555556 1.000000
vt 0.555556 0.500000
vt 0.444444 1.000000
vt 0.444444 0.500000
vt 0.333333 1.000000
vt 0.333333 0.500000
vt 0.222222 1.000000
vt 0.222222 0.500000
vt 0.777778 1.000000
vt 0.666667 1.000000
vt 0.111111 1.000000
vt 0.111111 0.500000
vt 0.000000 1.000000
vt 0.000000 0.500000
vt 0.750000 0.490000
vt 0.904269 0.433851
vt 0.986354 0.291676
vt 0.957846 0.130000
vt 0.832085 0.024474
vt 0.667915 0.024474
vt 0.542154 0.130000
vt 0.513646 0.291676
vt 0.595731 0.433851
vt 0.222222 1.000000
vt 0.333333 1.000000
vt 0.333333 1.000000
vt 0.222222 1.000000
vt 0.888889 1.000000
vt 0.111111 1.000000
vt 0.000000 1.000000
vt 0.444444 1.000000
vt 0.555556 1.000000
vt 1.000000 1.000000
vt 0.404269 0.433851
vt 0.250000 0.490000
vt 0.095731 0.433851
vt 0.013646 0.291676
vt 0.042154 0.130000
vt 0.167915 0.024474
vt 0.332085 0.024474
vt 0.457846 0.130000
vt 0.486354 0.291676
vt 0.666667 1.000000
vt 0.555556 1.000000
vt 1.000000 1.000000
vt 0.888889 1.000000
vt 0.111111 1.000000
vt 0.444444 1.000000
vt 0.777778 1.000000
vt 0.000000 1.000000
vn 0.3689 0.2390 -0.8982
vn 0.8257 0.3104 -0.4710
vn 0.9550 0.2686 0.1261
vn 0.6323 0.2146 0.7444
vn 0.0000 0.2017 0.9794
vn -0.6323 0.2146 0.7444
vn -0.9387 0.3423 0.0411
vn 0.0583 0.9450 -0.3218
vn -0.6826 0.4969 -0.5359
vn -0.4578 0.3395 -0.8217
vn 0.0000 -1.0000 -0.0000
vn 0.9671 0.2536 0.0195
vn 0.0000 1.0000 -0.0000
vn 0.3145 0.9427 0.1115
vn -0.5780 0.4645 -0.6709
vn -0.1570 0.5883 0.7932
vn 0.7459 -0.1217 0.6549
vn 0.0000 0.4686 -0.8834
vn -0.5619 0.7645 0.3159
vn 0.5967 0.1418 0.7898
vn 0.5780 0.4645 -0.6709
vn -0.7722 0.5796 -0.2602
usemtl None
s off
f 1/1/1 2/2/1 4/3/1 3/4/1
f 3/4/2 4/3/2 6/5/2 5/6/2
f 5/6/3 6/5/3 8/7/3 7/8/3
f 7/8/4 8/7/4 10/9/4 9/10/4
f 9/10/5 10/9/5 12/11/5 11/12/5
f 11/12/6 12/11/6 14/13/6 13/14/6
f 13/14/7 14/13/7 16/15/7 15/16/7
f 8/7/8 6/5/8 21/17/8 22/18/8
f 15/16/9 16/15/9 18/19/9 17/20/9
f 17/20/10 18/19/10 2/21/10 1/22/10
f 1/23/11 3/24/11 5/25/11 7/26/11 9/27/11 11/28/11 13/29/11 15/30/11 17/31/11
f 26/32/12 25/33/12 34/34/12 35/35/12
f 6/5/13 4/3/13 19/36/13 21/17/13
f 2/21/13 18/19/13 27/37/13 20/38/13
f 18/19/13 16/15/13 26/32/13 27/37/13
f 16/15/13 14/13/13 25/33/13 26/32/13
f 14/13/13 12/11/13 24/39/13 25/33/13
f 12/11/13 10/9/13 23/40/13 24/39/13
f 10/9/13 8/7/13 22/18/13 23/40/13
f 4/3/14 2/2/14 20/41/14 19/36/14
f 28/42/13 29/43/13 36/44/13 35/45/13 34/46/13 33/47/13 32/48/13 31/49/13 30/50/13
f 23/40/15 22/18/15 31/51/15 32/52/15
f 19/36/16 20/41/16 29/53/16 28/54/16
f 27/37/17 26/32/17 35/35/17 36/55/17
f 24/39/18 23/40/18 32/52/18 33/56/18
f 21/17/19 19/36/19 28/54/19 30/57/19
f 20/38/20 27/37/20 36/55/20 29/58/20
f 25/33/21 24/39/21 33/56/21 34/34/21
f 22/18/22 21/17/22 30/57/22 31/51/22
o Cylinder.021_Cylinder.024
v 2.869281 -0.032113 12.038174
v 2.869281 1.673182 12.038174
v 2.866320 -0.032113 11.757096
v 2.866320 1.673182 11.757096
v 3.132726 -0.032113 11.667422
v 3.132726 1.673182 11.667422
v 3.300334 -0.032113 11.893079
v 3.300334 1.673182 11.893079
v 3.137517 -0.032113 12.122215
v 3.137517 1.673182 12.122215
vt 1.000000 0.500000
vt 1.000000 1.000000
vt 0.800000 1.000000
vt 0.800000 0.500000
vt 0.600000 1.000000
vt 0.600000 0.500000
vt 0.400000 1.000000
vt 0.400000 0.500000
vt 0.478254 0.324164
vt 0.250000 0.490000
vt 0.021746 0.324164
vt 0.108932 0.055836
vt 0.391068 0.055836
vt 0.200000 1.000000
vt 0.200000 0.500000
vt 0.000000 1.000000
vt 0.000000 0.500000
vt 0.750000 0.490000
vt 0.978254 0.324164
vt 0.891068 0.055836
vt 0.608932 0.055836
vt 0.521746 0.324164
vn -0.9999 0.0000 0.0105
vn -0.3190 0.0000 -0.9477
vn 0.8028 0.0000 -0.5963
vn 0.0000 1.0000 0.0000
vn 0.8152 0.0000 0.5792
vn -0.2990 0.0000 0.9543
vn 0.0000 -1.0000 0.0000
usemtl None
s off
f 37/59/23 38/60/23 40/61/23 39/62/23
f 39/62/24 40/61/24 42/63/24 41/64/24
f 41/64/25 42/63/25 44/65/25 43/66/25
f 40/67/26 38/68/26 46/69/26 44/70/26 42/71/26
f 43/66/27 44/65/27 46/72/27 45/73/27
f 45/73/28 46/72/28 38/74/28 37/75/28
f 37/76/29 39/77/29 41/78/29 43/79/29 45/80/29
o Cylinder.023_Cylinder.025
v 2.505976 -0.024734 11.584239
v 2.505976 1.224769 11.584239
v 2.652305 -0.024734 11.344236
v 2.652305 1.224769 11.344236
v 2.925779 -0.024734 11.409238
v 2.925779 1.224769 11.409238
v 2.948467 -0.024734 11.689414
v 2.948467 1.224769 11.689414
v 2.689014 -0.024734 11.797570
v 2.689014 1.224769 11.797570
vt 1.000000 0.500000
vt 1.000000 1.000000
vt 0.800000 1.000000
vt 0.800000 0.500000
vt 0.600000 1.000000
vt 0.600000 0.500000
vt 0.400000 1.000000
vt 0.400000 0.500000
vt 0.478254 0.324164
vt 0.250000 0.490000
vt 0.021746 0.324164
vt 0.108932 0.055836
vt 0.391068 0.055836
vt 0.200000 1.000000
vt 0.200000 0.500000
vt 0.000000 1.000000
vt 0.000000 0.500000
vt 0.750000 0.490000
vt 0.978254 0.324164
vt 0.891068 0.055836
vt 0.608932 0.055836
vt 0.521746 0.324164
vn -0.8538 0.0000 -0.5206
vn 0.2312 0.0000 -0.9729
vn 0.9967 0.0000 -0.0807
vn 0.0000 1.0000 -0.0000
vn 0.3848 0.0000 0.9230
vn -0.7589 0.0000 0.6512
vn 0.0000 -1.0000 0.0000
usemtl None
s off
f 47/81/30 48/82/30 50/83/30 49/84/30
f 49/84/31 50/83/31 52/85/31 51/86/31
f 51/86/32 52/85/32 54/87/32 53/88/32
f 50/89/33 48/90/33 56/91/33 54/92/33 52/93/33
f 53/88/34 54/87/34 56/94/34 55/95/34
f 55/95/35 56/94/35 48/96/35 47/97/35
f 47/98/36 49/99/36 51/100/36 53/101/36 55/102/36
o Cylinder.024_Cylinder.026
v 2.274133 -0.024734 11.392240
v 2.274133 1.224769 11.392240
v 2.097097 -0.024734 11.173902
v 2.097097 1.224769 11.173902
v 2.250042 -0.024734 10.938060
v 2.250042 1.224769 10.938060
v 2.521603 -0.024734 11.010640
v 2.521603 1.224769 11.010640
v 2.536492 -0.024734 11.291338
v 2.536492 1.224769 11.291338
vt 1.000000 0.500000
vt 1.000000 1.000000
vt 0.800000 1.000000
vt 0.800000 0.500000
vt 0.600000 1.000000
vt 0.600000 0.500000
vt 0.400000 1.000000
vt 0.400000 0.500000
vt 0.478254 0.324164
vt 0.250000 0.490000
vt 0.021746 0.324164
vt 0.108932 0.055836
vt 0.391068 0.055836
vt 0.200000 1.000000
vt 0.200000 0.500000
vt 0.000000 1.000000
vt 0.000000 0.500000
vt 0.750000 0.490000
vt 0.978254 0.324164
vt 0.891068 0.055836
vt 0.608932 0.055836
vt 0.521746 0.324164
vn -0.7767 0.0000 0.6298
vn -0.8390 0.0000 -0.5441
vn 0.2582 0.0000 -0.9661
vn 0.0000 1.0000 0.0000
vn 0.9986 0.0000 -0.0530
vn 0.3590 0.0000 0.9334
vn 0.0000 -1.0000 -0.0000
usemtl None
s off
f 57/103/37 58/104/37 60/105/37 59/106/37
f 59/106/38 60/105/38 62/107/38 61/108/38
f 61/108/39 62/107/39 64/109/39 63/110/39
f 60/111/40 58/112/40 66/113/40 64/114/40 62/115/40
f 63/110/41 64/109/41 66/116/41 65/117/41
f 65/117/42 66/116/42 58/118/42 57/119/42
f 57/120/43 59/121/43 61/122/43 63/123/43 65/124/43
o Cylinder.025_Cylinder.027
v 3.412460 -0.041358 11.758294
v 3.412460 0.907165 11.758294
v 3.619089 -0.041358 11.567721
v 3.619089 0.907165 11.567721
v 3.864186 -0.041358 11.705346
v 3.864186 0.907165 11.705346
v 3.809036 -0.041358 11.980976
v 3.809036 0.907165 11.980976
v 3.529855 -0.041358 12.013700
v 3.529855 0.907165 12.013700
vt 1.000000 0.500000
vt 1.000000 1.000000
vt 0.800000 1.000000
vt 0.800000 0.500000
vt 0.600000 1.000000
vt 0.600000 0.500000
vt 0.400000 1.000000
vt 0.400000 0.500000
vt 0.478254 0.324164
vt 0.250000 0.490000
vt 0.021746 0.324164
vt 0.108932 0.055836
vt 0.391068 0.055836
vt 0.200000 1.000000
vt 0.200000 0.500000
vt 0.000000 1.000000
vt 0.000000 0.500000
vt 0.750000 0.490000
vt 0.978254 0.324164
vt 0.891068 0.055836
vt 0.608932 0.055836
vt 0.521746 0.324164
vn -0.6780 0.0000 -0.7351
vn 0.4896 0.0000 -0.8719
vn 0.9806 0.0000 0.1962
vn 0.0000 1.0000 0.0000
vn 0.1164 0.0000 0.9932
vn -0.9086 0.0000 0.4176
vn 0.0000 -1.0000 0.0000
usemtl None
s off
f 67/125/44 68/126/44 70/127/44 69/128/44
f 69/128/45 70/127/45 72/129/45 71/130/45
f 71/130/46 72/129/46 74/131/46 73/132/46
f 70/133/47 68/134/47 76/135/47 74/136/47 72/137/47
f 73/132/48 74/131/48 76/138/48 75/139/48
f 75/139/49 76/138/49 68/140/49 67/141/49
f 67/142/50 69/143/50 71/144/50 73/145/50 75/146/50
o Cylinder.026_Cylinder.028
v 3.535482 -0.041358 11.466064
v 3.535482 0.907165 11.466064
v 3.457176 -0.041358 11.196098
v 3.457176 0.907165 11.196098
v 3.689731 -0.041358 11.038201
v 3.689731 0.907165 11.038201
v 3.911764 -0.041358 11.210581
v 3.911764 0.907165 11.210581
v 3.816433 -0.041358 11.475016
v 3.816433 0.907165 11.475016
vt 1.000000 0.500000
vt 1.000000 1.000000
vt 0.800000 1.000000
vt 0.800000 0.500000
vt 0.600000 1.000000
vt 0.600000 0.500000
vt 0.400000 1.000000
vt 0.400000 0.500000
vt 0.478254 0.324164
vt 0.250000 0.490000
vt 0.021746 0.324164
vt 0.108932 0.055836
vt 0.391068 0.055836
vt 0.200000 1.000000
vt 0.200000 0.500000
vt 0.000000 1.000000
vt 0.000000 0.500000
vt 0.750000 0.490000
vt 0.978254 0.324164
vt 0.891068 0.055836
vt 0.608932 0.055836
vt 0.521746 0.324164
vn -0.9604 0.0000 0.2786
vn -0.5617 0.0000 -0.8273
vn 0.6132 0.0000 -0.7899
vn 0.0000 1.0000 -0.0000
vn 0.9407 0.0000 0.3391
vn -0.0318 0.0000 0.9995
vn 0.0000 -1.0000 -0.0000
usemtl None
s off
f 77/147/51 78/148/51 80/149/51 79/150/51
f 79/150/52 80/149/52 82/151/52 81/152/52
f 81/152/53 82/151/53 84/153/53 83/154/53
f 80/155/54 78/156/54 86/157/54 84/158/54 82/159/54
f 83/154/55 84/153/55 86/160/55 85/161/55
f 85/161/56 86/160/56 78/162/56 77/163/56
f 77/164/57 79/165/57 81/166/57 83/167/57 85/168/57
o Cylinder.027_Cylinder.029
v 3.715527 -0.043031 12.259909
v 3.715527 0.491055 12.259909
v 3.922155 -0.043031 12.069336
v 3.922155 0.491055 12.069336
v 4.167253 -0.043031 12.206961
v 4.167253 0.491055 12.206961
v 4.112103 -0.043031 12.482591
v 4.112103 0.491055 12.482591
v 3.832921 -0.043031 12.515314
v 3.832921 0.491055 12.515314
vt 1.000000 0.500000
vt 1.000000 1.000000
vt 0.800000 1.000000
vt 0.800000 0.500000
vt 0.600000 1.000000
vt 0.600000 0.500000
vt 0.400000 1.000000
vt 0.400000 0.500000
vt 0.478254 0.324164
vt 0.250000 0.490000
vt 0.021746 0.324164
vt 0.108932 0.055836
vt 0.391068 0.055836
vt 0.200000 1.000000
vt 0.200000 0.500000
vt 0.000000 1.000000
vt 0.000000 0.500000
vt 0.750000 0.490000
vt 0.978254 0.324164
vt 0.891068 0.055836
vt 0.608932 0.055836
vt 0.521746 0.324164
vn -0.6780 0.0000 -0.7351
vn 0.4896 0.0000 -0.8719
vn 0.9806 0.0000 0.1962
vn 0.0000 1.0000 -0.0000
vn 0.1164 0.0000 0.9932
vn -0.9086 0.0000 0.4176
vn 0.0000 -1.0000 -0.0000
usemtl None
s off
f 87/169/58 88/170/58 90/171/58 89/172/58
f 89/172/59 90/171/59 92/173/59 91/174/59
f 91/174/60 92/173/60 94/175/60 93/176/60
f 90/177/61 88/178/61 96/179/61 94/180/61 92/181/61
f 93/176/62 94/175/62 96/182/62 95/183/62
f 95/183/63 96/182/63 88/184/63 87/185/63
f 87/186/64 89/187/64 91/188/64 93/189/64 95/190/64
