# Blender v2.83.0 OBJ File: ''
# www.blender.org
mtllib lagoon pond 3.mtl
o Cylinder.028_Cylinder.021
v 3.008305 -0.030468 9.124994
v 3.008305 0.609457 9.265248
v 3.546486 0.421859 9.466391
v 3.651093 -0.030471 9.358950
v 3.832846 0.421859 9.975700
v 3.993113 -0.030471 9.951346
v 3.733394 0.609455 10.554867
v 3.874331 -0.030471 10.624994
v 3.294665 0.609455 10.932891
v 3.350325 -0.030471 11.064687
v 2.721945 0.609455 10.932890
v 2.666285 -0.030471 11.064687
v 2.283216 0.609455 10.554867
v 2.142280 -0.030471 10.624994
v 2.347209 0.609455 9.975700
v 2.023498 -0.030471 9.951346
v 3.705120 0.421859 9.998827
v 3.621074 0.609455 10.488277
v 2.870140 0.609455 9.466391
v 2.365518 -0.030471 9.358950
v 2.474935 0.609455 9.998827
v 2.395536 0.609455 10.488277
v 2.554550 0.275442 10.394006
v 2.492314 0.275442 10.031568
v 3.463119 0.421859 9.568412
v 2.953507 0.609455 9.568412
v 3.008305 0.609455 9.398427
v 2.766304 0.609455 10.807743
v 3.250307 0.609455 10.807743
v 3.462061 0.275442 10.394006
v 3.187507 0.275442 10.630570
v 3.008305 0.275442 9.586972
v 3.345095 0.275442 9.712845
v 2.671516 0.275442 9.712845
v 2.829103 0.275442 10.630570
v 3.524297 0.275442 10.031568
v 3.008306 -0.030471 10.124995
v 3.008306 0.275442 10.124995
v 2.869281 -0.032119 12.038174
v 2.869281 1.673176 12.038174
v 2.866320 1.673176 11.757096
v 2.866320 -0.032119 11.757096
v 3.132726 1.673176 11.667422
v 3.132726 -0.032119 11.667422
v 3.300334 1.673176 11.893079
v 3.300334 -0.032119 11.893079
v 3.137517 1.673176 12.122215
v 3.137517 -0.032119 12.122215
v 3.061236 -0.032119 11.895597
v 3.061236 1.673176 11.895598
v 2.505976 -0.024740 11.584239
v 2.505976 1.224763 11.584239
v 2.652305 1.224763 11.344236
v 2.652305 -0.024740 11.344236
v 2.925779 1.224763 11.409238
v 2.925779 -0.024740 11.409238
v 2.948467 1.224763 11.689414
v 2.948467 -0.024740 11.689414
v 2.689014 1.224763 11.797570
v 2.689014 -0.024740 11.797570
v 2.744308 -0.024740 11.564939
v 2.744308 1.224763 11.564940
v 2.274133 -0.024740 11.392240
v 2.274133 1.224763 11.392240
v 2.097097 1.224763 11.173902
v 2.097097 -0.024740 11.173902
v 2.250042 1.224763 10.938060
v 2.250042 -0.024740 10.938060
v 2.521603 1.224763 11.010640
v 2.521603 -0.024740 11.010640
v 2.536492 1.224763 11.291338
v 2.536492 -0.024740 11.291338
v 2.335873 -0.024740 11.161236
v 2.335873 1.224763 11.161236
v 3.412460 -0.041364 11.758294
v 3.412460 0.907159 11.758294
v 3.619089 0.907159 11.567721
v 3.619089 -0.041364 11.567721
v 3.864186 0.907159 11.705346
v 3.864186 -0.041364 11.705346
v 3.809036 0.907159 11.980976
v 3.809036 -0.041364 11.980976
v 3.529855 0.907159 12.013700
v 3.529855 -0.041364 12.013700
v 3.646925 -0.041364 11.805208
v 3.646925 0.907159 11.805208
v 3.535482 -0.041364 11.466064
v 3.535482 0.907159 11.466064
v 3.457176 0.907159 11.196098
v 3.457176 -0.041364 11.196098
v 3.689731 0.907159 11.038201
v 3.689731 -0.041364 11.038201
v 3.911764 0.907159 11.210581
v 3.911764 -0.041364 11.210581
v 3.816433 0.907159 11.475016
v 3.816433 -0.041364 11.475016
v 3.682117 -0.041364 11.277192
v 3.682117 0.907159 11.277192
v 3.715527 -0.043037 12.259909
v 3.715527 0.491049 12.259909
v 3.922155 0.491049 12.069336
v 3.922155 -0.043037 12.069336
v 4.167253 0.491049 12.206961
v 4.167253 -0.043037 12.206961
v 4.112103 0.491049 12.482591
v 4.112103 -0.043037 12.482591
v 3.832921 0.491049 12.515314
v 3.832921 -0.043037 12.515314
v 3.949992 0.491049 12.306823
v 3.949992 -0.043037 12.306823
vt 0.004097 0.376035
vt 0.111629 0.384848
vt 0.080710 0.479463
vt 0.002771 0.488683
vt 0.100470 0.573640
vt 0.025516 0.599019
vt 0.168260 0.649307
vt 0.072941 0.701206
vt 0.221433 0.728486
vt 0.136008 0.794554
vt 0.285263 0.797930
vt 0.212245 0.877496
vt 0.221511 0.004023
vt 0.285259 0.091194
vt 0.212210 0.152518
vt 0.135026 0.076216
vt 0.157002 0.231012
vt 0.061427 0.161507
vt 0.557356 0.559745
vt 0.465820 0.490158
vt 0.485438 0.476586
vt 0.563284 0.536732
vt 0.121928 0.346002
vt 0.014330 0.263845
vt 0.642293 0.287997
vt 0.720268 0.355792
vt 0.653309 0.377178
vt 0.618442 0.343883
vt 0.434791 0.382439
vt 0.459579 0.383824
vt 0.474901 0.269073
vt 0.524432 0.268781
vt 0.530129 0.290370
vt 0.496817 0.284739
vt 0.657264 0.268781
vt 0.745364 0.349932
vt 0.737560 0.465984
vt 0.713800 0.455477
vt 0.662534 0.545493
vt 0.651162 0.524026
vt 0.568406 0.475717
vt 0.620818 0.469077
vt 0.530461 0.343660
vt 0.502267 0.391826
vt 0.576970 0.332786
vt 0.653951 0.428953
vt 0.519895 0.448236
vt 0.273191 0.433648
vt 0.130564 0.515994
vt 0.111001 0.405049
vt 0.167329 0.307486
vt 0.273191 0.268956
vt 0.379053 0.307487
vt 0.435381 0.405050
vt 0.415818 0.515994
vt 0.329519 0.588408
vt 0.216863 0.588408
vt 0.582519 0.401599
vt 0.289626 0.095360
vt 0.570474 0.095360
vt 0.570474 0.141654
vt 0.289626 0.141654
vt 0.570474 0.187948
vt 0.289626 0.187948
vt 0.570474 0.234242
vt 0.289626 0.234242
vt 0.289626 0.002773
vt 0.570474 0.002773
vt 0.570474 0.049067
vt 0.289626 0.049067
vt 0.257767 0.211095
vt 0.218387 0.211095
vt 0.245598 0.173643
vt 0.245598 0.248548
vt 0.602333 0.211095
vt 0.614502 0.173643
vt 0.641713 0.211095
vt 0.614502 0.248547
vt 0.497481 0.708669
vt 0.291698 0.708669
vt 0.291698 0.662375
vt 0.497481 0.662376
vt 0.291698 0.616082
vt 0.497481 0.616082
vt 0.497481 0.847551
vt 0.291698 0.847551
vt 0.291698 0.801257
vt 0.497481 0.801256
vt 0.291698 0.754963
vt 0.497481 0.754963
vt 0.529340 0.639229
vt 0.541509 0.676681
vt 0.541509 0.601776
vt 0.568720 0.639229
vt 0.259839 0.639229
vt 0.247670 0.676681
vt 0.247670 0.601776
vt 0.220460 0.639229
vt 0.619815 0.779214
vt 0.619815 0.573431
vt 0.666109 0.573431
vt 0.666109 0.779214
vt 0.712403 0.573431
vt 0.712403 0.779214
vt 0.758697 0.573431
vt 0.758697 0.779214
vt 0.804990 0.573431
vt 0.804990 0.779214
vt 0.573522 0.779214
vt 0.573522 0.573431
vt 0.781844 0.811073
vt 0.819296 0.823242
vt 0.781844 0.850453
vt 0.744391 0.823242
vt 0.781844 0.541572
vt 0.781844 0.502193
vt 0.819296 0.529403
vt 0.744391 0.529403
vt 0.889844 0.413755
vt 0.889844 0.257541
vt 0.936138 0.257541
vt 0.936138 0.413755
vt 0.982431 0.257541
vt 0.982431 0.413755
vt 0.750963 0.413755
vt 0.750963 0.257541
vt 0.797257 0.257541
vt 0.797257 0.413755
vt 0.843551 0.257541
vt 0.843551 0.413755
vt 0.959285 0.445614
vt 0.921832 0.457783
vt 0.996737 0.457783
vt 0.959285 0.484994
vt 0.959285 0.225682
vt 0.921832 0.213513
vt 0.996737 0.213513
vt 0.959285 0.186302
vt 0.803761 0.156444
vt 0.647547 0.156444
vt 0.647547 0.110151
vt 0.803761 0.110150
vt 0.647547 0.063857
vt 0.803761 0.063857
vt 0.647547 0.017563
vt 0.803761 0.017563
vt 0.803761 0.249032
vt 0.647547 0.249032
vt 0.647547 0.202738
vt 0.803761 0.202738
vt 0.835620 0.040710
vt 0.874999 0.040710
vt 0.847789 0.078162
vt 0.847789 0.003257
vt 0.615688 0.040710
vt 0.603519 0.078162
vt 0.576308 0.040710
vt 0.603519 0.003257
vt 0.836178 0.817763
vt 0.924138 0.817763
vt 0.924138 0.864057
vt 0.836178 0.864057
vt 0.924138 0.910350
vt 0.836178 0.910351
vt 0.836178 0.678882
vt 0.924137 0.678882
vt 0.924138 0.725176
vt 0.836178 0.725176
vt 0.924138 0.771469
vt 0.836178 0.771470
vt 0.955997 0.887203
vt 0.968166 0.849751
vt 0.968166 0.924656
vt 0.995376 0.887203
vt 0.804319 0.887204
vt 0.792150 0.849751
vt 0.792150 0.924656
vt 0.764939 0.887204
vn -0.0440 -0.5217 -0.8520
vn 0.0219 0.7306 -0.6825
vn 0.5153 0.6951 -0.5014
vn 0.5630 -0.5246 -0.6386
vn 0.6821 0.7053 -0.1928
vn 0.8397 -0.5187 -0.1611
vn 0.5908 0.7674 0.2493
vn 0.7402 -0.5386 0.4025
vn 0.2385 0.7176 0.6543
vn 0.2890 -0.5524 0.7819
vn -0.2385 0.7176 0.6543
vn -0.2890 -0.5524 0.7819
vn -0.6173 0.7252 0.3050
vn -0.7629 -0.5249 0.3775
vn -0.5623 0.8040 -0.1931
vn -0.8497 -0.4647 -0.2490
vn -0.3074 0.9462 -0.1010
vn -0.2785 0.9007 -0.3335
vn -0.3129 0.8597 -0.4038
vn -0.6117 -0.4487 -0.6515
vn 0.5353 0.8157 0.2192
vn 0.3628 0.9171 -0.1652
vn 0.5707 0.7857 -0.2389
vn 0.6894 0.6775 0.2565
vn -0.0632 0.9478 0.3125
vn 0.4646 0.6977 0.5453
vn 0.1842 0.9262 0.3290
vn 0.1423 0.9120 -0.3848
vn -0.1423 0.9120 -0.3848
vn -0.4574 0.8319 -0.3144
vn -0.2030 0.8145 -0.5435
vn 0.1639 0.7906 0.5900
vn -0.2421 0.8970 0.3700
vn 0.5648 0.6117 0.5540
vn 0.2030 0.8145 -0.5435
vn -0.4453 0.8952 0.0179
vn -0.0000 -1.0000 -0.0000
vn 0.0000 1.0000 0.0000
vn -0.6448 -0.5957 0.4789
vn -0.6448 0.5957 0.4789
vn -0.6547 0.5957 -0.4652
vn -0.6547 -0.5957 -0.4652
vn 0.2401 0.5957 -0.7665
vn 0.2401 -0.5957 -0.7665
vn 0.8032 0.5957 -0.0085
vn 0.8032 -0.5957 -0.0085
vn 0.2562 0.5957 0.7612
vn 0.2562 -0.5957 0.7612
vn -0.8006 -0.5957 0.0648
vn -0.8006 0.5957 0.0648
vn -0.3091 0.5957 -0.7414
vn -0.3091 -0.5957 -0.7414
vn 0.6096 0.5957 -0.5230
vn 0.6096 -0.5957 -0.5230
vn 0.6858 0.5957 0.4181
vn 0.6858 -0.5957 0.4181
vn -0.1857 0.5957 0.7814
vn -0.1857 -0.5957 0.7814
vn -0.2074 -0.5957 0.7760
vn -0.2074 0.5957 0.7760
vn -0.8021 0.5957 0.0425
vn -0.8021 -0.5957 0.0425
vn -0.2883 0.5957 -0.7497
vn -0.2883 -0.5957 -0.7497
vn 0.6239 0.5957 -0.5059
vn 0.6239 -0.5957 -0.5059
vn 0.6739 0.5957 0.4370
vn 0.6739 -0.5957 0.4370
vn -0.7876 -0.5957 -0.1576
vn -0.7876 0.5957 -0.1576
vn -0.0935 0.5957 -0.7978
vn -0.0935 -0.5957 -0.7978
vn 0.7298 0.5957 -0.3354
vn 0.7298 -0.5957 -0.3354
vn 0.5446 0.5957 0.5904
vn 0.5446 -0.5957 0.5904
vn -0.3933 0.5957 0.7004
vn -0.3933 -0.5957 0.7004
vn -0.4926 -0.5957 0.6344
vn -0.4926 0.5957 0.6344
vn -0.7556 0.5957 -0.2724
vn -0.7556 -0.5957 -0.2724
vn 0.0256 0.5957 -0.8028
vn 0.0256 -0.5957 -0.8028
vn 0.7714 0.5957 -0.2238
vn 0.7714 -0.5957 -0.2238
vn 0.4512 0.5957 0.6645
vn 0.4512 -0.5957 0.6645
vn -0.0935 0.5957 -0.7977
vn -0.0935 -0.5957 -0.7977
usemtl Pond_3
s 1
f 1/1/1 2/2/2 3/3/3 4/4/4
f 4/4/4 3/3/3 5/5/5 6/6/6
f 6/6/6 5/5/5 7/7/7 8/8/8
f 8/8/8 7/7/7 9/9/9 10/10/10
f 10/10/10 9/9/9 11/11/11 12/12/12
f 12/13/12 11/14/11 13/15/13 14/16/14
f 14/16/14 13/15/13 15/17/15 16/18/16
f 7/19/7 5/20/5 17/21/17 18/22/18
f 16/18/16 15/17/15 19/23/19 20/24/20
f 20/24/20 19/23/19 2/2/2 1/1/1
f 21/25/21 22/26/22 23/27/23 24/28/24
f 5/20/5 3/29/3 25/30/25 17/21/17
f 2/31/2 19/32/19 26/33/26 27/34/27
f 19/32/19 15/35/15 21/25/21 26/33/26
f 15/35/15 13/36/13 22/26/22 21/25/21
f 13/36/13 11/37/11 28/38/28 22/26/22
f 11/37/11 9/39/9 29/40/29 28/38/28
f 9/39/9 7/19/7 18/22/18 29/40/29
f 3/29/3 2/31/2 27/34/27 25/30/25
f 29/40/29 18/22/18 30/41/30 31/42/31
f 25/30/25 27/34/27 32/43/32 33/44/33
f 26/33/26 21/25/21 24/28/24 34/45/34
f 28/38/28 29/40/29 31/42/31 35/46/35
f 17/21/17 25/30/25 33/44/33 36/47/36
f 27/34/27 26/33/26 34/45/34 32/43/32
f 22/26/22 28/38/28 35/46/35 23/27/23
f 18/22/18 17/21/17 36/47/36 30/41/30
f 37/48/37 1/49/1 4/50/4
f 37/48/37 4/50/4 6/51/6
f 37/48/37 6/51/6 8/52/8
f 37/48/37 8/52/8 10/53/10
f 37/48/37 10/53/10 12/54/12
f 37/48/37 12/54/12 14/55/14
f 37/48/37 14/55/14 16/56/16
f 37/48/37 16/56/16 20/57/20
f 37/48/37 20/57/20 1/49/1
f 38/58/38 24/28/24 23/27/23
f 38/58/38 36/47/36 33/44/33
f 38/58/38 33/44/33 32/43/32
f 38/58/38 32/43/32 34/45/34
f 38/58/38 34/45/34 24/28/24
f 38/58/38 23/27/23 35/46/35
f 38/58/38 35/46/35 31/42/31
f 38/58/38 31/42/31 30/41/30
f 38/58/38 30/41/30 36/47/36
f 39/59/39 40/60/40 41/61/41 42/62/42
f 42/62/42 41/61/41 43/63/43 44/64/44
f 44/64/44 43/63/43 45/65/45 46/66/46
f 46/67/46 45/68/45 47/69/47 48/70/48
f 48/70/48 47/69/47 40/60/40 39/59/39
f 49/71/37 39/72/39 42/73/42
f 49/71/37 42/73/42 44/64/44
f 49/71/37 44/64/44 46/66/46
f 49/71/37 46/66/46 48/74/48
f 49/71/37 48/74/48 39/72/39
f 50/75/38 41/76/41 40/77/40
f 50/75/38 43/63/43 41/76/41
f 50/75/38 45/65/45 43/63/43
f 50/75/38 40/77/40 47/78/47
f 50/75/38 47/78/47 45/65/45
f 51/79/49 52/80/50 53/81/51 54/82/52
f 54/82/52 53/81/51 55/83/53 56/84/54
f 56/85/54 55/86/53 57/87/55 58/88/56
f 58/88/56 57/87/55 59/89/57 60/90/58
f 60/90/58 59/89/57 52/80/50 51/79/49
f 61/91/37 51/92/49 54/82/52
f 61/91/37 54/82/52 56/84/54
f 61/91/37 56/84/54 58/93/56
f 61/91/37 58/93/56 60/94/58
f 61/91/37 60/94/58 51/92/49
f 62/95/38 53/81/51 52/96/50
f 62/95/38 55/83/53 53/81/51
f 62/95/38 57/97/55 55/83/53
f 62/95/38 52/96/50 59/98/57
f 62/95/38 59/98/57 57/97/55
f 63/99/59 64/100/60 65/101/61 66/102/62
f 66/102/62 65/101/61 67/103/63 68/104/64
f 68/104/64 67/103/63 69/105/65 70/106/66
f 70/106/66 69/105/65 71/107/67 72/108/68
f 72/109/68 71/110/67 64/100/60 63/99/59
f 73/111/37 63/112/59 66/113/62
f 73/111/37 66/113/62 68/114/64
f 73/111/37 68/114/64 70/106/66
f 73/111/37 70/106/66 72/108/68
f 73/111/37 72/108/68 63/112/59
f 74/115/38 65/116/61 64/117/60
f 74/115/38 67/118/63 65/116/61
f 74/115/38 69/105/65 67/118/63
f 74/115/38 64/117/60 71/107/67
f 74/115/38 71/107/67 69/105/65
f 75/119/69 76/120/70 77/121/71 78/122/72
f 78/122/72 77/121/71 79/123/73 80/124/74
f 80/125/74 79/126/73 81/127/75 82/128/76
f 82/128/76 81/127/75 83/129/77 84/130/78
f 84/130/78 83/129/77 76/120/70 75/119/69
f 85/131/37 75/132/69 78/122/72
f 85/131/37 78/122/72 80/124/74
f 85/131/37 80/124/74 82/133/76
f 85/131/37 82/133/76 84/134/78
f 85/131/37 84/134/78 75/132/69
f 86/135/38 77/121/71 76/136/70
f 86/135/38 79/123/73 77/121/71
f 86/135/38 81/137/75 79/123/73
f 86/135/38 76/136/70 83/138/77
f 86/135/38 83/138/77 81/137/75
f 87/139/79 88/140/80 89/141/81 90/142/82
f 90/142/82 89/141/81 91/143/83 92/144/84
f 92/144/84 91/143/83 93/145/85 94/146/86
f 94/147/86 93/148/85 95/149/87 96/150/88
f 96/150/88 95/149/87 88/140/80 87/139/79
f 97/151/37 87/152/79 90/153/82
f 97/151/37 90/153/82 92/144/84
f 97/151/37 92/144/84 94/146/86
f 97/151/37 94/146/86 96/154/88
f 97/151/37 96/154/88 87/152/79
f 98/155/38 89/156/81 88/157/80
f 98/155/38 91/143/83 89/156/81
f 98/155/38 93/145/85 91/143/83
f 98/155/38 88/157/80 95/158/87
f 98/155/38 95/158/87 93/145/85
f 99/159/69 100/160/70 101/161/89 102/162/90
f 102/162/90 101/161/89 103/163/73 104/164/74
f 104/165/74 103/166/73 105/167/75 106/168/76
f 106/168/76 105/167/75 107/169/77 108/170/78
f 108/170/78 107/169/77 100/160/70 99/159/69
f 109/171/38 101/161/89 100/172/70
f 109/171/38 103/163/73 101/161/89
f 109/171/38 105/173/75 103/163/73
f 109/171/38 100/172/70 107/174/77
f 109/171/38 107/174/77 105/173/75
f 110/175/37 99/176/69 102/162/90
f 110/175/37 102/162/90 104/164/74
f 110/175/37 104/164/74 106/177/76
f 110/175/37 106/177/76 108/178/78
f 110/175/37 108/178/78 99/176/69
